# xmcd
# 
# Track frame offsets:
#     150
#     17149
#     34293
#     54720
#     76224
#     98364
#     115796
#     131816
#     149569
#     167566
#     184851
#     215098
#     235386
#     255821
#     265344
#     282722
# 
# Disc length: 4002
# 
# Revision: 1
# Processed by: cddbd v1.5.2PL0 Copyright (c) Steve Scherf et al.
# Submitted via: fre:ac v1.1beta1
# 
DISCID=ea0fa010
DTITLE=Dark Tranquillity - We Are The Void
DYEAR=2010
DGENRE=Melodic Death Metal
TTITLE0=Shadow In Our Blood
TTITLE1=Dream Oblivion
TTITLE2=The Fatalist
TTITLE3=In My Absence
TTITLE4=The Grandest Accusation
TTITLE5=At The Point Of Ignition
TTITLE6=Her Silent Language
TTITLE7=Arkhangelsk
TTITLE8=I Am The Void
TTITLE9=Surface The Infinite
TTITLE10=Iridium
TTITLE11=Zero Distance
TTITLE12=Out Of Gravity
TTITLE13=Star Of Nothingness
TTITLE14=To Where Fires Cannot Feed
TTITLE15=The Bow And The Arrow
EXTD=
EXTT0=
EXTT1=
EXTT2=
EXTT3=
EXTT4=
EXTT5=
EXTT6=
EXTT7=
EXTT8=
EXTT9=
EXTT10=
EXTT11=
EXTT12=
EXTT13=
EXTT14=
EXTT15=
PLAYORDER=
